<svg width="768" height="574" viewBox="0 0 768 574" fill="none" xmlns="http://www.w3.org/2000/svg">
<path d="M304.268 33.7067C287.893 45.2667 273.68 59.2014 262.015 75.0267H262.335C276.775 75.0267 291.12 76.0146 305.268 77.9347C320.173 79.9613 334.88 83.04 349.268 87.1333C367.293 75.7733 388.468 69.3333 410.6 69.3333C474.12 69.3333 525.8 121.015 525.8 184.547V219.213H560.467C636.135 219.213 697.695 280.76 697.695 356.427C697.695 432.093 636.135 493.64 560.467 493.64C550.424 493.64 540.513 492.548 530.869 490.431C541.88 469.033 547.721 445.176 547.721 420.416H478.387C478.387 442.839 469.656 463.917 453.8 479.773C437.948 495.628 416.867 504.36 394.445 504.36C372.023 504.36 350.944 495.628 335.088 479.772C319.233 463.917 310.503 442.839 310.503 420.416H241.169C241.169 442.688 245.897 464.231 254.86 483.909C233.444 497.003 208.688 504.081 183.295 504.081C131.92 504.081 85.2493 475.747 61.496 430.135L0 462.159C35.7387 530.785 105.973 573.415 183.295 573.415C224.036 573.415 263.719 561.34 297.367 539.051C324.685 561.489 358.627 573.692 394.445 573.692C425.744 573.692 455.601 564.365 480.867 547.045C505.908 557.515 532.859 562.973 560.467 562.973C674.36 562.973 767.027 470.321 767.027 356.427C767.027 253.361 691.147 167.693 592.321 152.333C577.04 65.88 501.375 0 410.6 0C372.268 0 335.493 11.6533 304.268 33.7067Z" fill="url(#paint0_linear_2_100)"/>
<defs>
<linearGradient id="paint0_linear_2_100" x1="0.00064" y1="286.847" x2="767.027" y2="286.847" gradientUnits="userSpaceOnUse">
<stop stop-color="#22E561"/>
<stop offset="1" stop-color="#05766A"/>
</linearGradient>
</defs>
</svg>
