<?xml version="1.0" encoding="UTF-8" standalone="no"?>
<!-- Created with Inkscape (http://www.inkscape.org/) -->

<svg
   width="16"
   height="16"
   viewBox="0 0 4.2333332 4.2333333"
   version="1.1"
   id="svg185"
   xml:space="preserve"
   inkscape:version="1.2.2 (03908c27, 2023-01-22)"
   sodipodi:docname="iCloudBridge_Menubar_Template.svg"
   inkscape:export-filename="../../../../../Desktop/iCloudBridge_Menubar_Template.pdf"
   inkscape:export-xdpi="96"
   inkscape:export-ydpi="96"
   xmlns:inkscape="http://www.inkscape.org/namespaces/inkscape"
   xmlns:sodipodi="http://sodipodi.sourceforge.net/DTD/sodipodi-0.dtd"
   xmlns="http://www.w3.org/2000/svg"
   xmlns:svg="http://www.w3.org/2000/svg"><sodipodi:namedview
     id="namedview187"
     pagecolor="#ffffff"
     bordercolor="#000000"
     borderopacity="0.25"
     inkscape:showpageshadow="2"
     inkscape:pageopacity="0.0"
     inkscape:pagecheckerboard="0"
     inkscape:deskcolor="#d1d1d1"
     inkscape:document-units="mm"
     showgrid="false"
     showguides="true"
     inkscape:zoom="28.754254"
     inkscape:cx="6.9033264"
     inkscape:cy="8.9899741"
     inkscape:window-width="1654"
     inkscape:window-height="1149"
     inkscape:window-x="621"
     inkscape:window-y="94"
     inkscape:window-maximized="0"
     inkscape:current-layer="layer1"><sodipodi:guide
       position="2.1166666,9.5841822"
       orientation="-1,0"
       id="guide203"
       inkscape:locked="false"
       inkscape:label=""
       inkscape:color="rgb(0,134,229)" /><sodipodi:guide
       position="2.7730677,2.1166666"
       orientation="0,1"
       id="guide205"
       inkscape:locked="false"
       inkscape:label=""
       inkscape:color="rgb(0,134,229)" /></sodipodi:namedview><defs
     id="defs182" /><g
     inkscape:label="Layer 1"
     inkscape:groupmode="layer"
     id="layer1"><g
       style="fill:none"
       id="g201"
       transform="matrix(0.00382316,0,0,0.00382316,0.0198786,0.65)"><path
         d="m 479.189,45.1817 c -21.967,15.4955 -41.035,34.1742 -56.685,55.3873 h 0.43 c 19.371,0 38.616,1.324 57.596,3.898 19.997,2.716 39.726,6.843 59.028,12.33 24.182,-15.227 52.589,-23.8598 82.28,-23.8598 85.215,0 154.546,69.2758 154.546,154.4368 v 46.468 h 46.507 c 101.512,0 184.099,82.5 184.099,183.927 0,101.426 -82.587,183.926 -184.099,183.926 -13.473,0 -26.769,-1.464 -39.706,-4.302 14.771,-28.682 22.607,-60.661 22.607,-93.85 h -93.015 c 0,30.056 -11.713,58.311 -32.984,79.565 -21.267,21.252 -49.548,32.957 -79.627,32.957 -30.081,0 -58.359,-11.705 -79.631,-32.959 -21.269,-21.252 -32.982,-49.507 -32.982,-79.563 h -93.014 c 0,29.854 6.343,58.731 18.367,85.109 -28.731,17.55 -61.942,27.039 -96.008,27.039 -68.921,0 -131.532,-37.981 -163.398,-99.121 L 71,619.496 c 47.945,91.99 142.168,149.132 245.898,149.132 54.656,0 107.892,-16.185 153.032,-46.063 36.65,30.078 82.183,46.435 130.236,46.435 41.988,0 82.043,-12.502 115.938,-35.718 33.594,14.033 69.749,21.35 106.787,21.35 C 975.684,754.632 1100,630.438 1100,477.769 1100,339.616 998.204,224.783 865.625,204.194 845.125,88.3082 743.616,0 621.838,0 570.414,0 521.079,15.6205 479.189,45.1817 Z"
         fill="#000000"
         id="path189" /><path
         d="m 276.406,170.138 c -46.712,19.334 -88.525,47.252 -124.274,82.975 -35.749,35.724 -63.6873,77.506 -83.0377,124.183 -7.296,17.603 -13.2321,35.58 -17.8012,53.852 H 0 V 524 h 197.101 v -92.852 h -49.177 c 14.073,-41.868 37.746,-80.236 69.912,-112.38 54.799,-54.759 127.659,-84.915 205.159,-84.915 77.498,0 150.357,30.156 205.156,84.915 32.166,32.144 55.837,70.513 69.913,112.38 H 648.901 V 524 H 846 V 431.148 H 794.694 C 790.123,412.876 784.187,394.899 776.89,377.296 757.543,330.621 729.604,288.839 693.854,253.113 658.103,217.388 616.291,189.472 569.583,170.138 522.872,150.803 473.553,141 422.995,141 c -50.561,0 -99.879,9.803 -146.589,29.138 z"
         fill="#000000"
         id="path191" /></g></g></svg>
