<svg width="632" height="286" viewBox="0 0 632 286" fill="none" xmlns="http://www.w3.org/2000/svg">
<path d="M206.245 21.7573C171.391 36.1947 140.191 57.0413 113.516 83.716C86.8413 110.392 65.9947 141.591 51.556 176.445C46.112 189.589 41.6827 203.013 38.2733 216.657H0V285.991H147.071V216.657H110.376C120.877 185.393 138.541 156.744 162.543 132.741C203.432 91.852 257.797 69.3346 315.625 69.3346C373.452 69.3346 427.817 91.852 468.707 132.741C492.708 156.744 510.371 185.395 520.873 216.657H484.189V285.991H631.259V216.657H592.976C589.565 203.013 585.136 189.589 579.691 176.445C565.255 141.592 544.408 110.393 517.732 83.716C491.056 57.04 459.857 36.1947 425.005 21.7573C390.151 7.32001 353.351 0 315.625 0C277.899 0 241.099 7.32001 206.245 21.7573Z" fill="url(#paint0_linear_2_67)"/>
<defs>
<linearGradient id="paint0_linear_2_67" x1="-0.00048" y1="142.995" x2="631.259" y2="142.995" gradientUnits="userSpaceOnUse">
<stop stop-color="#22E561"/>
<stop offset="1" stop-color="#05766A"/>
</linearGradient>
</defs>
</svg>
